<svg width="130" height="52" viewBox="0 0 130 52" fill="none" xmlns="http://www.w3.org/2000/svg">
<g filter="url(#filter0_d_2506_8984)">
<path d="M64.6802 29.6489C65.4305 29.6489 66.1571 29.5534 66.8597 29.3624C67.5691 29.1714 68.2036 28.8848 68.7629 28.5028C69.3223 28.114 69.7657 27.6262 70.0932 27.0396C70.4274 26.4461 70.5946 25.7537 70.5946 24.9624C70.5946 24.2188 70.4547 23.6048 70.175 23.1205C69.9022 22.6362 69.5509 22.2473 69.1211 21.954C68.6981 21.6538 68.2547 21.4219 67.7909 21.2582C67.327 21.0876 66.904 20.9512 66.522 20.8489L63.9639 20.1531C63.6501 20.0712 63.3431 19.9689 63.0429 19.8461C62.7428 19.7233 62.4938 19.563 62.296 19.3652C62.0981 19.1605 61.9992 18.8979 61.9992 18.5773C61.9992 18.2293 62.1186 17.9292 62.3574 17.6768C62.6029 17.4244 62.9167 17.2334 63.2988 17.1038C63.6876 16.9673 64.1003 16.9059 64.5369 16.9196C65.2054 16.94 65.8194 17.1379 66.3788 17.5131C66.9381 17.8883 67.2997 18.434 67.4634 19.1503L70.4718 18.6387C70.1171 17.2538 69.4281 16.1931 68.4048 15.4563C67.3816 14.7196 66.1059 14.341 64.5778 14.3205C63.5682 14.3137 62.6473 14.4706 61.815 14.7912C60.9828 15.1118 60.3177 15.5996 59.8197 16.2545C59.3217 16.9093 59.0727 17.7314 59.0727 18.7205C59.0727 19.4231 59.1887 20.0064 59.4206 20.4703C59.6594 20.9273 59.9561 21.2957 60.3109 21.5754C60.6656 21.8551 61.0305 22.07 61.4057 22.22C61.7878 22.3701 62.122 22.4861 62.4085 22.568L66.2355 23.6935C66.8085 23.8641 67.1905 24.079 67.3816 24.3382C67.5726 24.5906 67.6681 24.8669 67.6681 25.167C67.6681 25.5763 67.5282 25.9208 67.2485 26.2005C66.9757 26.4802 66.6243 26.6917 66.1946 26.8349C65.7648 26.9782 65.3214 27.0498 64.8643 27.0498C64.0457 27.0498 63.3158 26.8213 62.6746 26.3642C62.0333 25.9072 61.6104 25.2557 61.4057 24.4098L58.4997 24.8396C58.6498 25.8355 59.0045 26.6951 59.5639 27.4182C60.1301 28.1345 60.8498 28.687 61.7229 29.0759C62.6029 29.4579 63.5887 29.6489 64.6802 29.6489Z" fill="#0B0F19"/>
<path d="M73.0483 16.7559H75.8316V14.3H73.0483V16.7559ZM73.0483 29.3419H75.8316V18.2907H73.0483V29.3419Z" fill="#0B0F19"/>
<path d="M79.1039 29.3419H81.8872V14.3H79.1039V29.3419Z" fill="#0B0F19"/>
<path d="M85.1595 16.7559H87.9427V14.3H85.1595V16.7559ZM85.1595 29.3419H87.9427V18.2907H85.1595V29.3419Z" fill="#0B0F19"/>
<path d="M95.8811 29.6489C97.1636 29.6489 98.2414 29.3317 99.1146 28.6972C99.9878 28.0628 100.581 27.159 100.895 25.9856L98.0504 25.3921C97.8867 25.9242 97.6411 26.3335 97.3137 26.62C96.9862 26.9066 96.5087 27.0498 95.8811 27.0498C95.0421 27.0498 94.4076 26.7531 93.9779 26.1596C93.5549 25.5593 93.3435 24.7782 93.3435 23.8163C93.3435 22.8954 93.5447 22.128 93.9472 21.514C94.3565 20.8932 95.0011 20.5828 95.8811 20.5828C96.3928 20.5828 96.8498 20.7431 97.2523 21.0638C97.6616 21.3844 97.9481 21.8312 98.1118 22.4042L100.895 21.6675C100.649 20.5283 100.083 19.6312 99.1965 18.9763C98.3165 18.3146 97.225 17.9838 95.9221 17.9838C94.7965 17.9838 93.821 18.2362 92.9955 18.741C92.1701 19.2458 91.5289 19.9382 91.0718 20.8182C90.6216 21.6982 90.3965 22.6976 90.3965 23.8163C90.3965 24.9214 90.6148 25.914 91.0514 26.794C91.4879 27.674 92.1155 28.3698 92.9342 28.8814C93.7528 29.3931 94.7351 29.6489 95.8811 29.6489Z" fill="#0B0F19"/>
<path d="M107.615 29.6489C108.72 29.6489 109.692 29.4033 110.531 28.9121C111.377 28.4141 112.035 27.7286 112.506 26.8554C112.984 25.9754 113.222 24.9624 113.222 23.8163C113.222 22.6771 112.987 21.6709 112.516 20.7977C112.046 19.9177 111.387 19.2287 110.541 18.7307C109.702 18.2328 108.727 17.9838 107.615 17.9838C106.524 17.9838 105.558 18.2293 104.719 18.7205C103.88 19.2117 103.222 19.8973 102.744 20.7773C102.267 21.6504 102.028 22.6635 102.028 23.8163C102.028 24.9555 102.26 25.9652 102.724 26.8452C103.195 27.7183 103.849 28.4039 104.688 28.9019C105.528 29.3999 106.503 29.6489 107.615 29.6489ZM107.615 27.0498C106.749 27.0498 106.09 26.7599 105.64 26.18C105.197 25.5934 104.975 24.8055 104.975 23.8163C104.975 22.8545 105.186 22.0768 105.609 21.4833C106.039 20.883 106.708 20.5828 107.615 20.5828C108.495 20.5828 109.157 20.8762 109.6 21.4628C110.05 22.0495 110.275 22.834 110.275 23.8163C110.275 24.7645 110.054 25.5422 109.61 26.1493C109.174 26.7497 108.509 27.0498 107.615 27.0498Z" fill="#0B0F19"/>
<path d="M115.452 29.3419H118.276V23.7345C118.276 23.0455 118.351 22.4929 118.501 22.0768C118.658 21.6607 118.856 21.3469 119.095 21.1354C119.334 20.9171 119.59 20.7704 119.862 20.6954C120.135 20.6204 120.391 20.5828 120.63 20.5828C121.223 20.5828 121.68 20.7159 122.001 20.9819C122.328 21.248 122.564 21.5788 122.707 21.9745C122.85 22.3701 122.936 22.7658 122.963 23.1614C122.99 23.5503 123.004 23.8709 123.004 24.1233V29.3419H125.828V23.141C125.828 22.9568 125.814 22.6635 125.787 22.261C125.76 21.8585 125.681 21.4151 125.552 20.9307C125.422 20.4396 125.204 19.9689 124.897 19.5186C124.597 19.0684 124.174 18.6966 123.628 18.4033C123.082 18.11 122.376 17.9633 121.51 17.9633C120.712 17.9633 120.016 18.0963 119.422 18.3624C118.829 18.6284 118.331 18.9831 117.928 19.4266V18.2907H115.452V29.3419Z" fill="#0B0F19"/>
<path d="M14.2174 22L8.08696 12.2791L26.9891 0L26.4783 10.7442L14.2174 22Z" fill="url(#paint0_linear_2506_8984)"/>
<path d="M26.4783 10.7442L26.9891 0L46.4022 8.69767L42.3152 26.093L16.2609 30.186L14.2174 22L26.4783 10.7442Z" fill="url(#paint1_linear_2506_8984)"/>
<path d="M35.163 44L16.2609 30.186L42.3152 26.093L46.913 30.6977L35.163 44Z" fill="url(#paint2_linear_2506_8984)"/>
<path d="M42.3152 26.093L46.913 30.6977L51 17.907L46.4022 8.69767L42.3152 26.093Z" fill="url(#paint3_linear_2506_8984)"/>
<path d="M16.2609 30.186L35.163 44L16.2609 41.4418L4 26.6046L16.2609 30.186Z" fill="url(#paint4_linear_2506_8984)"/>
<path d="M8.08696 12.2791L4 26.6046L16.2609 30.186L14.2174 22L8.08696 12.2791Z" fill="url(#paint5_linear_2506_8984)"/>
<path d="M35.1635 44L16.2614 30.186L42.3157 26.093L46.9135 30.6977L35.1635 44Z" fill="black" fill-opacity="0.17"/>
<path d="M42.3147 26.0931L46.9125 30.6977L50.9995 17.9071L46.4017 8.69775L42.3147 26.0931Z" fill="black" fill-opacity="0.1"/>
<path d="M16.2609 30.1861L35.163 44.0001L16.2609 41.4419L4 26.6047L16.2609 30.1861Z" fill="black" fill-opacity="0.23"/>
<path d="M8.08696 12.2791L4 26.6046L16.2609 30.186L14.2174 22L8.08696 12.2791Z" fill="#C0C0C0" fill-opacity="0.05"/>
<path d="M14.2174 22L8.08696 12.2791L26.9891 0L26.4783 10.7442L14.2174 22Z" fill="white" fill-opacity="0.15"/>
<path fill-rule="evenodd" clip-rule="evenodd" d="M14.2174 22L26.4783 10.7442L26.9891 0L8.08696 12.2791L14.2174 22ZM14.2807 21.5255L26.1781 10.6033L26.6545 0.583262L8.50783 12.3716L14.2807 21.5255Z" fill="white" fill-opacity="0.15"/>
<path fill-rule="evenodd" clip-rule="evenodd" d="M26.7784 10.885L14.559 22.1028L16.4903 29.8393L42.0641 25.8217L46.0458 8.87429L27.2739 0.4639L26.7784 10.885ZM26.4783 10.7442L14.2174 22L16.2609 30.186L42.3152 26.093L46.4022 8.69767L26.9891 0L26.4783 10.7442Z" fill="white" fill-opacity="0.15"/>
<path fill-rule="evenodd" clip-rule="evenodd" d="M35.1183 43.5873L46.4924 30.7105L42.2087 26.4205L17.0388 30.3745L35.1183 43.5873ZM35.163 44L46.913 30.6977L42.3152 26.093L16.2609 30.186L35.163 44Z" fill="white" fill-opacity="0.15"/>
<path fill-rule="evenodd" clip-rule="evenodd" d="M46.913 30.6977L51 17.907L46.4022 8.69767L42.3152 26.093L46.913 30.6977ZM42.6527 25.9969L46.7743 30.1246L50.67 17.9325L46.5066 9.59332L42.6527 25.9969Z" fill="white" fill-opacity="0.15"/>
<path fill-rule="evenodd" clip-rule="evenodd" d="M16.1235 30.4657L4.87279 27.1793L16.4206 41.1537L34.0047 43.5334L16.1235 30.4657ZM16.2609 30.186L4 26.6046L16.2609 41.4418L35.163 44L16.2609 30.186Z" fill="white" fill-opacity="0.15"/>
<path fill-rule="evenodd" clip-rule="evenodd" d="M4.37847 26.3954L15.834 29.7416L13.932 22.1222L8.19353 13.0229L4.37847 26.3954ZM4 26.6046L16.2609 30.186L14.2174 22L8.08696 12.2791L4 26.6046Z" fill="white" fill-opacity="0.15"/>
<path d="M27.6972 19.0156H31.1656C31.1154 15.9651 28.6082 13.859 24.7971 13.859C21.0446 13.859 18.2949 15.9317 18.3117 19.0407C18.3033 21.5647 20.0835 23.0105 22.9752 23.7042L24.8389 24.1722C26.7026 24.6235 27.739 25.1584 27.7473 26.3118C27.739 27.5654 26.5522 28.4179 24.7135 28.4179C22.8331 28.4179 21.4792 27.5487 21.3622 25.8354H17.8604C17.9523 29.5378 20.6016 31.4517 24.7553 31.4517C28.9341 31.4517 31.3912 29.4542 31.3996 26.3201C31.3912 23.4702 29.2433 21.9575 26.2681 21.2889L24.7303 20.9211C23.2426 20.5785 21.9973 20.0269 22.0224 18.7983C22.0224 17.6951 23.0002 16.8844 24.7721 16.8844C26.5021 16.8844 27.5635 17.6701 27.6972 19.0156Z" fill="white"/>
<path d="M36.5507 19.3023H33.3182V31.2093H36.5507V19.3023Z" fill="white"/>
<path d="M35.3458 9.90698H34.1627L32.6888 10.8401V11.9564L34.0522 11.1017H34.0871V15.8605H35.3458V9.90698Z" fill="white"/>
<path d="M36.6707 14.814H39.5282V15.8605H40.7317V14.814H41.4701V13.8052H40.7317V9.90698H39.1561L36.6707 13.8227V14.814ZM39.5515 13.8052H37.9381V13.7587L39.505 11.2791H39.5515V13.8052Z" fill="white"/>
</g>
<defs>
<filter id="filter0_d_2506_8984" x="0" y="0" width="130" height="52.0001" filterUnits="userSpaceOnUse" color-interpolation-filters="sRGB">
<feFlood flood-opacity="0" result="BackgroundImageFix"/>
<feColorMatrix in="SourceAlpha" type="matrix" values="0 0 0 0 0 0 0 0 0 0 0 0 0 0 0 0 0 0 127 0" result="hardAlpha"/>
<feOffset dy="4"/>
<feGaussianBlur stdDeviation="2"/>
<feComposite in2="hardAlpha" operator="out"/>
<feColorMatrix type="matrix" values="0 0 0 0 0 0 0 0 0 0 0 0 0 0 0 0 0 0 0.25 0"/>
<feBlend mode="normal" in2="BackgroundImageFix" result="effect1_dropShadow_2506_8984"/>
<feBlend mode="normal" in="SourceGraphic" in2="effect1_dropShadow_2506_8984" result="shape"/>
</filter>
<linearGradient id="paint0_linear_2506_8984" x1="4" y1="22.1053" x2="51" y2="22.1053" gradientUnits="userSpaceOnUse">
<stop stop-color="#6366F1"/>
<stop offset="0.5" stop-color="#8B5CF6"/>
<stop offset="1" stop-color="#D946EF"/>
</linearGradient>
<linearGradient id="paint1_linear_2506_8984" x1="4" y1="22.1053" x2="51" y2="22.1053" gradientUnits="userSpaceOnUse">
<stop stop-color="#6366F1"/>
<stop offset="0.5" stop-color="#8B5CF6"/>
<stop offset="1" stop-color="#D946EF"/>
</linearGradient>
<linearGradient id="paint2_linear_2506_8984" x1="4" y1="22.1053" x2="51" y2="22.1053" gradientUnits="userSpaceOnUse">
<stop stop-color="#6366F1"/>
<stop offset="0.5" stop-color="#8B5CF6"/>
<stop offset="1" stop-color="#D946EF"/>
</linearGradient>
<linearGradient id="paint3_linear_2506_8984" x1="4" y1="22.1053" x2="51" y2="22.1053" gradientUnits="userSpaceOnUse">
<stop stop-color="#6366F1"/>
<stop offset="0.5" stop-color="#8B5CF6"/>
<stop offset="1" stop-color="#D946EF"/>
</linearGradient>
<linearGradient id="paint4_linear_2506_8984" x1="4" y1="22.1053" x2="51" y2="22.1053" gradientUnits="userSpaceOnUse">
<stop stop-color="#6366F1"/>
<stop offset="0.5" stop-color="#8B5CF6"/>
<stop offset="1" stop-color="#D946EF"/>
</linearGradient>
<linearGradient id="paint5_linear_2506_8984" x1="4" y1="22.1053" x2="51" y2="22.1053" gradientUnits="userSpaceOnUse">
<stop stop-color="#6366F1"/>
<stop offset="0.5" stop-color="#8B5CF6"/>
<stop offset="1" stop-color="#D946EF"/>
</linearGradient>
</defs>
</svg>
